# xmcd
#
# Track frame offsets:
#	150
#	10853
#	21878
#	34006
#	44176
#	54864
#	72684
#	83987
#	93655
#	105655
#	119088
#
# Disc length: 1731 seconds
#
# Revision: 1
# Processed by: cddbd v1.5.2PL0 Copyright (c) Steve Scherf et al.
# Submitted via: audiograbber 1.83.01
#
DISCID=9906c10b
DTITLE=Bill Anderson's - Greatest Hits Vol. 2
DYEAR=1971
DGENRE=Country
TTITLE0=Quits
TTITLE1=No One's Gonna Hurt You
TTITLE2=My Life ( Throw It Away If I Want To)
TTITLE3=Always Remember
TTITLE4=Wild Weekend
TTITLE5=Where Have All Our Heros Gone
TTITLE6=Get While The Gettin's Good
TTITLE7=Me
TTITLE8=But You Know I Love You
TTITLE9=Love Is A Sometimes Thing
TTITLE10=Happy State Of Mind
EXTD=
EXTT0=
EXTT1=
EXTT2=
EXTT3=
EXTT4=
EXTT5=
EXTT6=
EXTT7=
EXTT8=
EXTT9=
EXTT10=
PLAYORDER=
